<?xml version="1.0" standalone="no"?>
<!DOCTYPE svg PUBLIC "-//W3C//DTD SVG 1.1//EN" "http://www.w3.org/Graphics/SVG/1.1/DTD/svg11.dtd" >
<svg xmlns="http://www.w3.org/2000/svg">
<metadata></metadata>
<defs>
<font id="ansonregular" horiz-adv-x="858" >
<font-face units-per-em="2048" ascent="1638" descent="-410" />
<missing-glyph horiz-adv-x="645" />
<glyph horiz-adv-x="2048" />
<glyph horiz-adv-x="2048" />
<glyph unicode="&#xd;" horiz-adv-x="2048" />
<glyph unicode=" "  horiz-adv-x="645" />
<glyph unicode="&#x09;" horiz-adv-x="645" />
<glyph unicode="&#xa0;" horiz-adv-x="645" />
<glyph unicode="!" horiz-adv-x="495" d="M174 0v147h148v-147h-148zM174 297v1143h148v-1143h-148z" />
<glyph unicode="&#x22;" horiz-adv-x="671" d="M113 1247v76h43q27 0 38 12t23 60q0 2 1 6t1 6h-67v147h147v-147q-4 -22 -8 -31q-15 -62 -43.5 -96t-91.5 -33h-43zM373 1247v76h43q27 0 38 12t23 60q0 2 1 6t1 6h-67v147h147v-147q-4 -22 -8 -31q-15 -62 -43.5 -96t-91.5 -33h-43z" />
<glyph unicode="#" horiz-adv-x="1077" d="M113 532v109h217l65 158h-180v108h223l119 289h109l-119 -289h141l117 289h108l-118 -289h170v-108h-213l-66 -158h176v-109h-219l-119 -286h-108l119 286h-142l-117 -286h-108l119 286h-174zM438 641h142l63 158h-141z" />
<glyph unicode="$" horiz-adv-x="1052" d="M113 1077q0 171 127 271q94 73 233 88v174h109v-170q100 -1 184 -54.5t127 -140.5l-133 -65q-25 50 -72.5 80.5t-105.5 31.5v-522q166 -106 233 -168q125 -119 125 -250q3 -137 -90 -233q-104 -106 -268 -117v-174h-109v172h-29q-101 0 -186.5 53.5t-128.5 141.5l133 65 q25 -51 74 -82t108 -31h29v517q-168 110 -237 176q-123 117 -123 237zM260 1077q0 -57 76 -131q46 -43 137 -106v446q-89 -12 -143 -55q-70 -55 -70 -154zM582 150q107 15 161 71q50 50 50 129q0 62 -55 120.5t-156 123.5v-444z" />
<glyph unicode="%" horiz-adv-x="1087" d="M113 932q0 -69 48.5 -119.5t117.5 -50.5q71 0 120.5 50t49.5 120q0 69 -49 117.5t-121 48.5q-69 0 -117.5 -48.5t-48.5 -117.5zM182 932q0 39 29.5 67.5t67.5 28.5q40 0 69 -28t29 -68t-29 -68t-69 -28q-38 0 -67.5 28.5t-29.5 67.5zM203 -55l542 1495h138l-541 -1495 h-139zM639 440q0 -69 48.5 -119.5t117.5 -50.5q71 0 120.5 50t49.5 120q0 69 -49 117.5t-121 48.5q-69 0 -117.5 -48.5t-48.5 -117.5zM709 440q0 39 29.5 68t66.5 29q40 0 69 -28.5t29 -68.5t-29 -68t-69 -28q-37 0 -66.5 28.5t-29.5 67.5z" />
<glyph unicode="&#x26;" horiz-adv-x="1300" d="M133 369v14q0 104 55 193t146 135q8 4 10 4q-73 89 -84 104q-119 156 -88 326q12 73 53.5 134t106.5 101q66 43 149.5 55t165.5 -8q166 -42 244 -180l-129 -71q-45 83 -150 108q-119 26 -200 -27q-78 -51 -97 -139q-18 -100 62 -209q79 -104 463 -536v80q0 102 -76 168 l133 73q90 -103 90 -241v-82q0 -73 -24 -135q197 -221 204 -228l-108 -98q-15 12 -180 199q-42 -42 -93 -68q-77 -41 -168 -41h-114q-154 0 -262.5 108.5t-108.5 260.5zM281 369q0 -88 60 -152t148 -70h129q93 0 162 72q-172 188 -334 377q-73 -19 -119 -78t-46 -135v-14z " />
<glyph unicode="(" horiz-adv-x="872" d="M195 381v407q0 212 80 385.5t210 256.5q77 51 193 51v-131q-45 0 -111 -41q-57 -37 -108 -109q-52 -72 -84 -180q-33 -106 -33 -232v-407q0 -126 33 -229q32 -110 84 -181q49 -71 108 -108q66 -41 111 -41v-133q-121 0 -205 59q-125 86 -201.5 256.5t-76.5 376.5z" />
<glyph unicode=")" horiz-adv-x="872" d="M195 -178q44 0 110 41q60 39 109 108q52 71 84 181q32 100 32 229v407q0 129 -32 232q-32 108 -84 180q-50 71 -109 109q-66 41 -110 41v131q115 0 192 -51q130 -83 210.5 -256.5t80.5 -385.5v-407q0 -206 -77 -376.5t-202 -256.5q-84 -59 -204 -59v133z" />
<glyph unicode="*" horiz-adv-x="1228" d="M281 1368l38 115l224 -72v236h123v-236l225 72l37 -115l-223 -76l137 -188l-99 -74l-137 193l-139 -193l-98 74l137 188z" />
<glyph unicode="+" horiz-adv-x="915" d="M113 535v147h270v270h149v-270h271v-147h-271v-273h-149v273h-270z" />
<glyph unicode="," horiz-adv-x="350" d="M82 -84h43q27 0 38 12t23 60q0 2 1 6t1 6h-67v147h147v-147q-4 -22 -8 -31q-15 -62 -43.5 -96t-91.5 -33h-43v76z" />
<glyph unicode="-" horiz-adv-x="915" d="M113 514h690v148h-690v-148z" />
<glyph unicode="." horiz-adv-x="352" d="M102 0h148v147h-148v-147z" />
<glyph unicode="/" horiz-adv-x="874" d="M61 -55l541 1495h160l-543 -1495h-158z" />
<glyph unicode="0" horiz-adv-x="1042" d="M113 352v735q0 146 103 249.5t249 103.5h113q146 0 249 -103.5t103 -249.5v-735q0 -146 -103 -249t-249 -103h-113q-146 0 -249 103t-103 249zM260 352q0 -85 60 -145t145 -60h113q30 0 73 15l-346 1052q-45 -54 -45 -127v-735zM391 1278l346 -1053q45 58 45 127v735 q0 85 -59.5 145t-144.5 60h-113q-34 0 -74 -14z" />
<glyph unicode="1" horiz-adv-x="722" d="M113 0v147h174v1145h-174v148h323v-1293h174v-147h-497z" />
<glyph unicode="2" horiz-adv-x="1036" d="M113 1243q61 124 184 172q70 25 160 25h59q161 0 272 -103t111 -258q0 -163 -221 -497q-195 -293 -309 -435h555v-147h-746v147l23 29q190 242 354 488q106 159 151.5 262t45.5 153q0 95 -67 154t-169 59h-59q-33 0 -59 -4t-56 -14.5t-55 -35t-43 -60.5z" />
<glyph unicode="3" horiz-adv-x="1056" d="M113 195l133 65q25 -51 74 -82t108 -31h147q92 0 157 66t65 158v51q0 92 -65 156.5t-157 64.5h-192v152h192q92 0 157 64.5t65 156.5v53q0 92 -65 157.5t-157 65.5h-147q-59 0 -108 -31t-74 -81l-133 65q43 88 128.5 141.5t186.5 53.5h147q152 0 260.5 -108.5 t108.5 -262.5v-53q0 -89 -40 -167t-109 -130q69 -52 109 -130t40 -167v-51q0 -154 -108.5 -262.5t-260.5 -108.5h-147q-101 0 -186.5 53.5t-128.5 141.5z" />
<glyph unicode="4" horiz-adv-x="1083" d="M133 428v147l346 865h158l-344 -865h350v279h148v-279h159v-147h-159v-428h-148v428h-510z" />
<glyph unicode="5" horiz-adv-x="1056" d="M113 195l133 65q25 -51 74 -82t108 -31h147q92 0 157 66t65 158v121q0 92 -65 156.5t-157 64.5h-409v727h702v-148h-555v-430h262q90 0 168 -43q91 -47 146 -134.5t55 -192.5v-121q0 -154 -108.5 -262.5t-260.5 -108.5h-147q-101 0 -186.5 53.5t-128.5 141.5z" />
<glyph unicode="6" horiz-adv-x="1056" d="M113 371v698q0 154 108 262.5t262 108.5h148q100 0 182.5 -54t126.5 -143l-123 -61q-27 50 -77 80t-109 30h-148q-92 0 -157.5 -65.5t-65.5 -157.5v-321q92 45 141 45h174q90 0 168 -43q91 -47 146 -134.5t55 -193.5v-51q0 -149 -102.5 -257t-249.5 -114h-125 q-148 6 -251 114t-103 257zM260 371q0 -92 65.5 -158t157.5 -66h92q92 0 157 66t65 158v51q0 92 -65 156.5t-157 64.5h-174q-52 0 -95 -37t-46 -86v-149z" />
<glyph unicode="7" horiz-adv-x="1042" d="M113 1292v148h817v-148l-611 -1292h-169l608 1292h-645z" />
<glyph unicode="8" horiz-adv-x="1067" d="M113 371v82q0 96 46 178t124 133q-61 52 -96 125t-35 155v27q0 153 108 261t262 108h17q153 0 261.5 -108t108.5 -261v-27q0 -168 -129 -278q80 -50 127 -133.5t47 -179.5v-82q0 -152 -105.5 -260t-256.5 -111h-117q-151 3 -256.5 111t-105.5 260zM260 371 q0 -92 65.5 -158t157.5 -66h101q92 0 157.5 66t65.5 158v82q0 92 -65.5 157.5t-157.5 65.5h-101q-92 0 -157.5 -65.5t-65.5 -157.5v-82zM299 1044q0 -91 65.5 -156t157.5 -65h17q92 0 157.5 65t65.5 156v27q0 92 -65.5 156.5t-157.5 64.5h-17q-92 0 -157.5 -64.5 t-65.5 -156.5v-27z" />
<glyph unicode="9" horiz-adv-x="1056" d="M113 195l133 65q25 -51 74 -82t108 -31h147q92 0 157 66t65 160v319q-88 -43 -142 -43h-172q-93 0 -170 41q-90 46 -145 134.5t-55 193.5v51q0 149 103 257t251 114h125q147 -6 249.5 -114t102.5 -257v-698q0 -154 -108.5 -262.5t-260.5 -108.5h-147q-101 0 -186.5 53.5 t-128.5 141.5zM260 1018q0 -92 65.5 -156.5t157.5 -64.5h172q53 0 96 37t46 86v149q0 92 -65 157.5t-157 65.5h-92q-92 0 -157.5 -65.5t-65.5 -157.5v-51z" />
<glyph unicode=":" horiz-adv-x="475" d="M164 0h147v147h-147v-147zM174 514h137v148h-137v-148z" />
<glyph unicode=";" horiz-adv-x="514" d="M164 -84h43q27 0 38 12t23 60q0 2 1 6t1 6h-67v147h147v-147q-4 -22 -8 -31q-15 -62 -43.5 -96t-91.5 -33h-43v76zM205 514h137v148h-137v-148z" />
<glyph unicode="=" horiz-adv-x="1228" d="M113 381h690v147h-690v-147zM113 676h690v147h-690v-147z" />
<glyph unicode="?" horiz-adv-x="1015" d="M113 1016v49q0 93 41 170q47 91 135 146t194 55h52q152 0 260.5 -109.5t107.5 -261.5q0 -179 -67 -295q-19 -32 -46 -62.5t-42 -43t-46 -37.5l-18 -17q-16 -13 -35 -26q-34 -27 -52 -44.5t-41.5 -52t-33.5 -82.5t-10 -114h-147q0 73 13.5 135t30.5 100.5t47.5 75.5 t50 53.5t52.5 42.5l31 25l20 18q28 23 42 35.5t37.5 42t35.5 59.5t21.5 78.5t9.5 108.5q0 92 -64.5 156.5t-156.5 64.5h-52q-92 0 -157.5 -64.5t-65.5 -156.5v-49h-147zM371 0v147h147v-147h-147z" />
<glyph unicode="A" horiz-adv-x="1069" d="M61 0l402 1440h143l402 -1440h-154l-117 412h-407l-115 -412h-154zM371 553h327l-163 588z" />
<glyph unicode="B" horiz-adv-x="962" d="M61 0v1440h379q154 0 262.5 -108.5t108.5 -262.5v-31q0 -153 -111 -264q91 -47 146 -134.5t55 -193.5v-75q0 -154 -108.5 -262.5t-262.5 -108.5h-469zM209 147h321q92 0 158 66t66 158v75q0 92 -66 157t-158 65h-321v-521zM209 817h242q88 3 150.5 67t62.5 154v31 q0 92 -66 157.5t-158 65.5h-231v-475z" />
<glyph unicode="C" horiz-adv-x="968" d="M72 352v735q0 146 103 249.5t249 103.5h158q101 0 185.5 -53.5t129.5 -141.5l-133 -65q-25 50 -74 81t-108 31h-158q-85 0 -145 -60t-60 -145v-735q0 -85 60 -145t145 -60h158q57 0 105 30t75 79l133 -66q-45 -86 -129 -138t-184 -52h-158q-146 0 -249 103t-103 249z" />
<glyph unicode="D" horiz-adv-x="1069" d="M123 0v1440h428q167 0 286 -121t119 -289v-624q0 -167 -119 -286.5t-286 -119.5h-428zM270 147h281q106 0 182 76.5t76 182.5v624q0 107 -76 182.5t-182 75.5h-281v-1141z" />
<glyph unicode="E" horiz-adv-x="1021" d="M113 0v1440h796v-148h-649v-475h455v-149h-455v-521h649v-147h-796z" />
<glyph unicode="F" horiz-adv-x="1011" d="M113 0v1440h796v-148h-649v-475h455v-149h-455v-668h-147z" />
<glyph unicode="G" horiz-adv-x="1071" d="M123 352v735q0 146 103 249.5t249 103.5h158q101 0 185.5 -53.5t129.5 -141.5l-133 -65q-25 50 -74 81t-108 31h-158q-85 0 -145 -60t-60 -145v-735q0 -85 60 -145t145 -60h121q85 0 144 60t59 145v287h-314v149h463v-436q0 -146 -103.5 -249t-248.5 -103h-121 q-26 0 -80 8q-118 28 -195 124t-77 220z" />
<glyph unicode="H" horiz-adv-x="1079" d="M123 0v1440h147v-623h539v623h147v-1440h-147v668h-539v-668h-147z" />
<glyph unicode="I" horiz-adv-x="372" d="M113 0v1440h147v-1440h-147z" />
<glyph unicode="J" horiz-adv-x="581" d="M61 4v139l183 4q54 0 91.5 38t37.5 91v1160h147v-1123q0 -118 -82.5 -215.5t-193.5 -97.5z" />
<glyph unicode="K" horiz-adv-x="1093" d="M92 0v1440h148v-647l542 643h199l-512 -605l512 -831h-170l-442 713l-129 -150v-563h-148z" />
<glyph unicode="L" horiz-adv-x="1028" d="M102 0v1440h148v-1290h686v-150h-834z" />
<glyph unicode="M" horiz-adv-x="1228" d="M123 0v1440h147l348 -621l347 621h149v-1440h-149v1090l-347 -596l-348 596v-1090h-147z" />
<glyph unicode="N" horiz-adv-x="1017" d="M92 0v1440h148l536 -1143v1143h150v-1440h-187l-499 1071v-1071h-148z" />
<glyph unicode="O" horiz-adv-x="960" d="M72 352v735q0 146 103 249.5t249 103.5h113q146 0 249 -103.5t103 -249.5v-735q0 -146 -103 -249t-249 -103h-113q-146 0 -249 103t-103 249zM219 352q0 -85 60 -145t145 -60h113q85 0 144.5 60t59.5 145v735q0 85 -59.5 145t-144.5 60h-113q-85 0 -145 -60t-60 -145 v-735z" />
<glyph unicode="P" horiz-adv-x="956" d="M61 0v1440h428q167 0 286.5 -121t119.5 -289v-22q0 -167 -119.5 -286.5t-286.5 -119.5h-280v-602h-148zM209 750h280q106 0 182.5 76t76.5 182v22q0 107 -76.5 182.5t-182.5 75.5h-280v-538z" />
<glyph unicode="Q" horiz-adv-x="1085" d="M92 352v735q0 146 103 249.5t249 103.5h113q146 0 249 -103.5t103 -249.5v-735q0 -68 -26 -135l110 -113l-104 -104l-92 94q-100 -94 -240 -94h-113q-146 0 -249 103t-103 249zM240 352q0 -85 59.5 -145t144.5 -60h113q74 0 133 52l-129 129l107 104l92 -94l2 14v735 q0 85 -60 145t-145 60h-113q-85 0 -144.5 -60t-59.5 -145v-735z" />
<glyph unicode="R" horiz-adv-x="1069" d="M123 0v1440h428q167 0 286 -121t119 -289v-22q0 -155 -103.5 -270t-256.5 -134l356 -604h-172l-354 602h-156v-602h-147zM270 750h281q106 0 182 76t76 182v22q0 107 -76 182.5t-182 75.5h-281v-538z" />
<glyph unicode="S" horiz-adv-x="1011" d="M92 1077q0 -121 123 -235q83 -80 258 -189q62 -39 92.5 -59.5t77.5 -56t70 -61t41 -59t18 -65.5q0 -79 -49 -131q-17 -17 -38.5 -30t-42 -20.5t-41.5 -13t-36 -7.5t-26.5 -3.5t-12.5 -1.5h-393v-141l137 -4h258q19 0 46 3.5t72.5 14t94.5 36.5t88 65q91 94 91 225v8 q0 134 -125 250q-71 66 -242 174q-171 110 -238 172q-75 69 -75 129q0 100 69 154q77 62 217 65h285v142l-145 4h-140q-186 0 -307 -94q-127 -100 -127 -271z" />
<glyph unicode="T" horiz-adv-x="956" d="M61 1292v148h834v-148h-342v-1292h-150v1292h-342z" />
<glyph unicode="U" horiz-adv-x="1001" d="M92 352v897l4 191h140l4 -191v-897q0 -85 59.5 -145t144.5 -60h113q85 0 145 60t62 145v1088h141l4 -191v-897q0 -146 -103 -249t-249 -103h-113q-146 0 -249 103t-103 249z" />
<glyph unicode="V" horiz-adv-x="1105" d="M61 1436h150l342 -1295l342 1295h149l-380 -1436h-224z" />
<glyph unicode="W" horiz-adv-x="1464" d="M8 1436h150l280 -1295l187 826h149l189 -826l260 1295h149l-299 -1436h-223l-150 686l-151 -686h-223z" />
<glyph unicode="X" horiz-adv-x="1064" d="M82 0l338 719l-338 721h149l301 -643l302 643h149l-338 -721l338 -719h-149l-302 641l-301 -641h-149z" />
<glyph unicode="Y" horiz-adv-x="950" d="M61 1440h150l264 -645l264 645h150l-338 -826h-2v-614h-148v614h-2z" />
<glyph unicode="Z" horiz-adv-x="956" d="M61 0v150l656 1142h-656v148h834v-148l-655 -1142h655v-150h-834z" />
<glyph unicode="[" d="M195 -385v1860h469v-148h-322v-1565h322v-147h-469z" />
<glyph unicode="\" horiz-adv-x="874" d="M61 1440h160l541 -1495h-158z" />
<glyph unicode="]" d="M195 -238h321v1565h-321v148h469v-1860h-469v147z" />
<glyph unicode="_" horiz-adv-x="1017" d="M113 0h792v147h-792v-147z" />
<glyph unicode="`" horiz-adv-x="1228" d="M297 1290l203 -188h188l-121 188h-270z" />
<glyph unicode="a" horiz-adv-x="870" d="M90 276q0 114 81 195.5t196 81.5h264v137q0 53 -37.5 91t-91.5 38h-135q-39 0 -74 -23t-49 -57l-127 64q33 71 101 117.5t149 46.5h135q115 0 195.5 -81.5t80.5 -195.5v-690h-110l-35 41q-59 -41 -131 -41h-135q-114 0 -195.5 80.5t-81.5 195.5zM238 276 q0 -54 37.5 -91.5t91.5 -37.5h135q54 0 91.5 37.5t37.5 91.5v130h-264q-54 0 -91.5 -38t-37.5 -92z" />
<glyph unicode="b" d="M88 0v1440h148v-518q83 45 129 45h135q115 0 195.5 -81.5t80.5 -195.5v-411q0 -116 -80.5 -197.5t-195.5 -81.5h-135q-65 0 -129 41l-37 -41h-111zM236 279q0 -54 37.5 -93t91.5 -39h135q54 0 91.5 39t37.5 93v411q0 54 -37.5 91.5t-91.5 37.5h-135q-53 0 -91 -38.5 t-38 -90.5v-411z" />
<glyph unicode="c" horiz-adv-x="825" d="M82 279v411q0 115 81 196t197 81h136q81 0 148 -45.5t99 -116.5l-127 -66q-14 35 -47 57.5t-73 22.5h-136q-54 0 -92.5 -37.5t-38.5 -91.5v-411q0 -54 38.5 -93t92.5 -39h136q39 0 72.5 23t47.5 57l127 -63q-32 -71 -99 -117.5t-148 -46.5h-136q-115 0 -196.5 81.5 t-81.5 197.5z" />
<glyph unicode="d" horiz-adv-x="851" d="M82 279v411q0 114 80.5 195.5t195.5 81.5h136q46 0 129 -45v518h147v-1440h-111l-36 41q-64 -41 -129 -41h-136q-115 0 -195.5 81.5t-80.5 197.5zM229 279q0 -54 37.5 -93t91.5 -39h136q54 0 91.5 39t37.5 93v411q0 52 -38 90.5t-91 38.5h-136q-54 0 -91.5 -37.5 t-37.5 -91.5v-411z" />
<glyph unicode="e" horiz-adv-x="847" d="M86 276v377q0 118 82.5 216t193.5 98h136q115 0 196.5 -81.5t81.5 -195.5q0 -115 -81 -195.5t-197 -80.5h-265v-138q0 -52 38.5 -90.5t90.5 -38.5h136q41 0 75 23t48 57l127 -63q-34 -72 -101 -118t-149 -46h-136q-114 0 -195 81t-81 195zM233 561h265q54 0 92.5 37.5 t38.5 91.5t-38.5 91.5t-92.5 37.5h-136q-53 0 -91 -37.5t-38 -91.5v-129z" />
<glyph unicode="f" horiz-adv-x="692" d="M82 819v148h129v159q0 118 83 216t195 98l121 -4v-144h-121q-54 0 -92.5 -38t-38.5 -91v-196h134v-148h-134v-819h-147v819h-129z" />
<glyph unicode="g" horiz-adv-x="923" d="M82 602v66q0 6 0.5 17t6.5 42t16 59t31.5 62.5t51 59.5t78 42t107.5 17h110q65 0 123 -23l162 27l12 -66l-61 -53q24 -37 38 -83t15 -73l2 -28v-66q0 -56 -16 -102.5t-41.5 -75.5t-57 -51.5t-62.5 -33t-56.5 -17t-41.5 -8.5l-16 -1h-110q-37 1 -86 17q-28 -56 -36 -97.5 t-1 -54.5q2 -4 9 -8.5t35.5 -10t70.5 -5.5h165q51 0 89.5 -4.5t80.5 -19.5t69 -41t44.5 -71.5t17.5 -107.5v-78q0 -62 -17.5 -108t-44.5 -72t-68.5 -41.5t-81 -20t-89.5 -4.5h-145q-21 0 -40.5 1.5t-50.5 7t-57 15t-55 28t-48.5 43.5t-32.5 64t-13 87q0 29 7 61.5t15 50.5 l7 17l123 -45q-9 -43 -9 -84q0 -24 3 -36.5t16.5 -29t47 -23.5t87.5 -7h145q45 0 74 4t45 9.5t23 20t8.5 25.5t1.5 37v78q0 26 -1.5 37t-8.5 25t-23 19t-44.5 9t-74.5 4h-165q-190 0 -246 105q-18 34 -18 77q0 85 67 207q-86 79 -86 209zM227 602q0 -5 1.5 -14.5t10.5 -32.5 t23 -41t43.5 -32.5t67.5 -14.5h110q39 0 68.5 14t43.5 33.5t22.5 39.5t10.5 34l1 14v66q0 37 -15 65.5t-36.5 42.5t-43 23.5t-36.5 11.5l-15 2h-110q-6 -1 -16 -2.5t-35 -11t-44 -23.5t-35 -42.5t-16 -65.5v-66z" />
<glyph unicode="h" horiz-adv-x="884" d="M102 0v1440h148v-518q83 45 129 45h135q115 0 197 -81.5t82 -195.5v-690h-150v690q0 54 -37.5 91.5t-91.5 37.5h-135q-52 0 -90.5 -39t-38.5 -90v-690h-148z" />
<glyph unicode="i" horiz-adv-x="393" d="M123 0h147v967h-147v-967zM123 1102h147v147h-147v-147z" />
<glyph unicode="j" horiz-adv-x="581" d="M31 -268l182 4q54 0 91.5 37.5t37.5 91.5v1104h147v-1067q0 -118 -82.5 -216t-193.5 -98l-182 4v140zM342 1102v147h147v-147h-147z" />
<glyph unicode="k" horiz-adv-x="864" d="M92 0v1440h148v-856l342 381h198l-338 -377l340 -588h-172l-272 471l-98 -109v-362h-148z" />
<glyph unicode="l" horiz-adv-x="372" d="M113 0h147v1440h-147v-1440z" />
<glyph unicode="m" horiz-adv-x="1382" d="M80 0v967h110l37 -45q83 45 129 45h136q123 0 208 -95q33 33 70 52q2 1 15.5 8t18.5 9t17 7.5t19.5 7.5t18.5 5.5t20.5 4.5t19.5 1h135q114 0 195.5 -81t81.5 -196v-690h-148v690q0 54 -37.5 91.5t-91.5 37.5h-135q-53 0 -91 -38.5t-38 -90.5v-690h-147v690 q0 53 -38.5 91t-92.5 38h-136q-52 0 -90.5 -39t-38.5 -92v-688h-147z" />
<glyph unicode="n" horiz-adv-x="874" d="M102 0v967h111l37 -45v2q88 43 129 43h135q116 0 197.5 -81t81.5 -196v-690h-148v690q0 54 -38.5 91.5t-92.5 37.5h-135q-52 0 -90.5 -39t-38.5 -90v-690h-148z" />
<glyph unicode="o" d="M82 291v385q0 60 16.5 108.5t43 78t58.5 51.5t64.5 32t59 16t42.5 6l17 1h102q57 0 104 -16t76 -42t51.5 -57.5t33 -62.5t17 -57t7.5 -42l2 -16v-385q0 -6 -1 -16.5t-8 -41t-17.5 -58t-33 -61.5t-51.5 -58.5t-76 -41t-104 -16.5h-102q-6 0 -17 0.5t-42 6.5t-59.5 16 t-63.5 32t-60 51.5t-42 78t-17 108.5zM238 291q1 -6 2.5 -16t11 -35.5t23.5 -45t42.5 -35.5t65.5 -16h102q6 0 15 1.5t32.5 10.5t41.5 23.5t32.5 44t14.5 68.5v385q0 39 -14 68.5t-34 43.5t-40 23t-34 11l-14 1h-102q-27 0 -49.5 -8t-37 -21t-25.5 -28.5t-17 -31.5t-10 -29 t-5 -21l-1 -8v-385z" />
<glyph unicode="p" horiz-adv-x="864" d="M92 -414v1381h111l37 -41q59 41 129 41h135q115 0 196.5 -81.5t81.5 -195.5v-414q0 -114 -81.5 -195t-196.5 -81h-135q-46 0 -129 45v-459h-148zM240 276q0 -51 38.5 -90t90.5 -39h135q54 0 92.5 37.5t38.5 91.5v414q0 54 -38.5 91.5t-92.5 37.5h-135q-53 0 -91 -37.5 t-38 -91.5v-414z" />
<glyph unicode="q" horiz-adv-x="854" d="M82 276v414q0 114 81 195.5t195 81.5h136q72 0 131 -41l37 41h110v-1381h-147v459q-83 -45 -131 -45h-136q-114 0 -195 81t-81 195zM229 276q0 -52 38.5 -90.5t90.5 -38.5h136q54 0 92.5 38.5t38.5 90.5v414q0 54 -38.5 91.5t-92.5 37.5h-136q-53 0 -91 -37.5t-38 -91.5 v-414z" />
<glyph unicode="r" horiz-adv-x="587" d="M92 0v967h111l37 -41q59 41 131 41h135v-144l-135 -4q-54 0 -92.5 -37.5t-38.5 -91.5v-690h-148z" />
<glyph unicode="s" horiz-adv-x="804" d="M61 705q0 -39 13 -73t32 -59t49.5 -47t56 -35.5t62 -27t57 -19.5t50.5 -14q45 -13 76.5 -24.5t63 -28.5t47.5 -39.5t16 -50.5q0 -132 -183 -135l-295 -5v-143l295 -4h4q151 0 239 76q90 78 89 211q0 42 -13 78.5t-31.5 62.5t-49.5 49t-55.5 36.5t-61 27.5t-54.5 19 t-48 13q-38 11 -64.5 19.5t-55.5 21t-47 25.5t-30 30t-12 36q0 32 17.5 55.5t45.5 35.5t54.5 17.5t50.5 5.5l280 4v142l-280 4h-4q-136 1 -224 -73q-90 -74 -90 -191z" />
<glyph unicode="t" horiz-adv-x="636" d="M84 821v150h94v131l109 147h41v-278h227v-150h-227v-542q0 -54 37.5 -93.5t91.5 -40.5h98v-141l-98 -4q-74 0 -139.5 46.5t-102.5 119t-37 149.5v506h-94z" />
<glyph unicode="u" horiz-adv-x="897" d="M102 291v547l4 129h148l4 -129v-547q1 -6 2.5 -16t11 -35t23.5 -44t42 -35t64 -16h103q5 0 14.5 1.5t32.5 10t41 22.5t32.5 43.5t14.5 68.5v547l4 129h148l4 -129v-547q0 -6 -1.5 -16.5t-8.5 -40.5t-17.5 -57.5t-33 -61.5t-52 -58t-76 -40.5t-102.5 -16.5h-103 q-6 0 -17 0.5t-42 6.5t-59 16t-62.5 31.5t-59.5 51t-42 78t-17 107.5z" />
<glyph unicode="v" horiz-adv-x="837" d="M72 967h149l197 -813l198 813h150l-236 -967h-223z" />
<glyph unicode="w" horiz-adv-x="1331" d="M82 967h149l197 -813l164 667h147l164 -667l199 813h147l-235 -967h-223l-125 516l-125 -516h-224z" />
<glyph unicode="x" horiz-adv-x="860" d="M82 0l235 483l-235 484h149l199 -408l199 408h149l-235 -484l235 -483h-149l-199 408l-199 -408h-149z" />
<glyph unicode="y" horiz-adv-x="718" d="M41 -268l84 4q36 0 53.5 8.5t32 37t31.5 93.5q30 128 32 137l-231 955h147l160 -658l160 658h147l-229 -944q-22 -105 -43 -185q-12 -45 -22.5 -76t-31 -67t-46.5 -57.5t-67 -36.5t-93 -15l-84 4v142z" />
<glyph unicode="z" horiz-adv-x="854" d="M82 0v147l508 670h-508v150h690v-150l-504 -670h504v-147h-690z" />
<glyph unicode="{" horiz-adv-x="1089" d="M195 467v139q4 1 34 7.5t39 7.5q80 14 119 118q41 106 41 299q0 110 8.5 181.5t34.5 121.5q30 68 90 99q55 30 135 30l199 -8v-139l-199 -8q-34 0 -55.5 -8t-27 -14.5t-11.5 -18.5q-27 -53 -27 -236q0 -225 -51 -356q-34 -91 -92 -145q59 -55 92 -146q51 -131 51 -356 q0 -181 27 -234q6 -12 11.5 -19t27 -15.5t55.5 -8.5l199 -8v-139l-199 -6q-83 0 -135 28q-58 30 -90 99q-26 51 -34.5 122.5t-8.5 180.5q0 192 -41 301q-39 105 -119 119q-5 1 -35.5 6.5t-37.5 5.5z" />
<glyph unicode="|" horiz-adv-x="536" d="M195 -164v1665h147v-1665h-147z" />
<glyph unicode="}" horiz-adv-x="1089" d="M195 -250l198 8q34 0 55.5 8.5t27 15.5t11.5 19q27 53 27 234q0 225 51 356q33 91 92 146q-58 54 -92 145q-51 131 -51 356q0 183 -27 236q-6 12 -11.5 18.5t-27 14.5t-55.5 8l-198 8v139l198 8q79 0 135 -30q60 -31 90 -99q44 -86 44 -303q0 -195 40 -299 q39 -104 119 -118q9 -1 39.5 -7.5t34.5 -7.5v-139q-7 0 -38 -5.5t-36 -6.5q-80 -14 -119 -119q-40 -107 -40 -301q0 -215 -44 -303q-32 -69 -90 -99q-52 -28 -135 -28l-198 6v139z" />
<glyph unicode="~" horiz-adv-x="927" d="M132.5 507.5q0.5 -7.5 1 -12.5t0.5 -9l1 -3h105q0 15 12.5 39.5t26.5 28.5q50 8 124 -27q35 -20 43 -24q61 -23 129 -23q57 0 121 23q43 23 71 70.5t28 117.5h-107q0 -22 -15.5 -48t-37.5 -36q-25 -8 -59.5 -6t-49.5 8q-29 13 -39 19q-23 11 -36 17t-39 15t-46.5 12 t-49 2.5t-56.5 -7.5q-84 -16 -121 -107q-3 -8 -4.5 -17.5t-2 -17t0 -15z" />
<glyph unicode="&#xa2;" horiz-adv-x="1073" d="M113 430v107h186v153q0 114 81 195.5t195 81.5h136q82 0 149 -46t101 -116l-127 -66q-14 34 -48 57t-75 23h-136q-53 0 -91 -37.5t-38 -91.5v-153h291v-107h-291v-154q0 -52 38 -90.5t91 -38.5h136q41 0 75 23t48 57l127 -63q-34 -72 -101 -118t-149 -46h-136 q-114 0 -195 81t-81 195v154h-186z" />
<glyph unicode="&#xa3;" horiz-adv-x="1064" d="M133 651v107h172q-28 56 -44 93.5t-31 102.5t-15 133q0 146 102.5 249.5t247.5 103.5h53q101 0 186 -53.5t128 -141.5l-131 -65q-27 51 -75.5 81.5t-107.5 30.5h-53q-83 0 -143 -60t-60 -145q0 -54 13 -106t24.5 -78.5t40.5 -85.5q15 -27 31 -59h287v-107h-246 q25 -91 25 -176q0 -202 -91 -328h379v-147h-690v156q49 0 103.5 18.5t80.5 50.5q70 89 70 250q0 92 -33 176h-223z" />
<glyph unicode="&#xa5;" horiz-adv-x="1093" d="M133 1440h150l264 -645l264 645h150l-220 -533h119v-108h-162l-65 -158h227v-109h-239v-532h-148v532h-237v109h225l-66 158h-159v108h116z" />
<glyph unicode="&#xa8;" horiz-adv-x="649" d="M102 1102h148v147h-148v-147zM399 1102h148v147h-148v-147z" />
<glyph unicode="&#xa9;" horiz-adv-x="1224" d="M113 981q0 -100 39 -195q44 -95 108 -157q63 -65 158 -109q95 -39 194 -39q100 0 195 39q94 43 160 109q69 69 106 157q39 88 39 195t-39 195q-37 87 -106 159q-73 70 -160 107q-88 39 -195 39q-106 0 -194 -39q-88 -38 -158 -107q-65 -65 -108 -159q-39 -95 -39 -195z M211 981q0 166 117.5 283.5t283.5 117.5t284 -117.5t118 -283.5t-118 -283.5t-284 -117.5t-283.5 117.5t-117.5 283.5zM393 879v206q0 75 54.5 130t130.5 55h90q54 0 98.5 -30.5t67.5 -78.5l-84 -43q-9 23 -32.5 38t-49.5 15h-90q-35 0 -60.5 -25.5t-25.5 -60.5v-206 q0 -36 25 -61t61 -25h90q26 0 49.5 14.5t32.5 36.5l84 -43q-23 -47 -68 -78t-98 -31h-90q-76 0 -130.5 55t-54.5 132z" />
<glyph unicode="&#xab;" horiz-adv-x="1046" d="M133 760l356 354l76 -76l-280 -278l280 -279l-76 -78zM481 760l357 354l75 -76l-280 -278l280 -279l-75 -78z" />
<glyph unicode="&#xad;" horiz-adv-x="915" d="M113 514h690v148h-690v-148z" />
<glyph unicode="&#xae;" horiz-adv-x="1228" d="M127 981q0 -100 39 -195q44 -95 108 -157q63 -65 158 -109q95 -39 195 -39q99 0 194 39q94 43 160 109q68 69 106 157q39 88 39 195t-39 195q-37 87 -106 159q-73 70 -160 107q-88 39 -194 39q-107 0 -195 -39q-88 -38 -158 -107q-65 -65 -108 -159q-39 -95 -39 -195z M225 981q0 166 118 283.5t284 117.5t283.5 -117.5t117.5 -283.5t-117.5 -283.5t-283.5 -117.5t-284 117.5t-118 283.5zM457 688v586h174q69 0 117.5 -49t48.5 -117v-10q0 -63 -42.5 -109.5t-105.5 -54.5l146 -246h-70l-143 246h-64v-246h-61zM518 993h113q44 0 75 31t31 74 v10q0 43 -31 73.5t-75 30.5h-113v-219z" />
<glyph unicode="&#xaf;" horiz-adv-x="874" d="M133 1098h608v147h-608v-147z" />
<glyph unicode="&#xb0;" horiz-adv-x="501" d="M111 1362q0 -57 40 -98t97 -41q58 0 98.5 41t40.5 98t-40.5 97t-98.5 40q-57 0 -97 -40t-40 -97zM172 1362q0 30 23 53t53 23q31 0 52.5 -22.5t21.5 -53.5t-21.5 -52.5t-52.5 -21.5q-30 0 -53 22t-23 52z" />
<glyph unicode="&#xb1;" horiz-adv-x="1228" d="M305 100h690v148h-690v-148zM305 737v148h270v270h150v-270h270v-148h-270v-272h-150v272h-270z" />
<glyph unicode="&#xb2;" horiz-adv-x="765" d="M113 1309q41 83 123 114q50 17 106 17h39q108 0 182 -68.5t74 -171.5q0 -108 -148 -332q-139 -204 -206 -290h370v-99h-497v99l16 20q124 158 236 324q131 196 131 278q0 64 -44.5 102.5t-113.5 38.5h-39q-48 0 -83.5 -14.5t-57.5 -60.5z" />
<glyph unicode="&#xb3;" horiz-adv-x="778" d="M113 610l88 43q18 -33 50 -54t71 -21h98q61 0 104 43.5t43 105.5v35q0 62 -42.5 104.5t-104.5 42.5h-127v101h127q62 0 104.5 43t42.5 104v35q0 62 -43 105.5t-104 43.5h-98q-39 0 -71 -20.5t-50 -54.5l-88 45q28 58 85 93.5t124 35.5h98q101 0 173.5 -72.5t72.5 -175.5 v-35q0 -59 -27 -112t-72 -87q46 -35 72.5 -86t26.5 -110v-35q0 -103 -72.5 -175.5t-173.5 -72.5h-98q-67 0 -124 36t-85 95z" />
<glyph unicode="&#xb4;" horiz-adv-x="1228" d="M297 1102h188l203 188h-270z" />
<glyph unicode="&#xb9;" horiz-adv-x="557" d="M113 479v99h114v763h-114v99h215v-862h116v-99h-331z" />
<glyph unicode="&#xbb;" horiz-adv-x="1046" d="M133 481l281 279l-281 278l76 76l356 -354l-356 -357zM481 481l281 279l-281 278l76 76l356 -354l-356 -357z" />
<glyph unicode="&#xbc;" horiz-adv-x="2015" d="M225 565v90h105v695h-105v90h197v-785h106v-90h-303zM436 -55l1032 1495h121l-1034 -1495h-119zM1370 264v90l211 531h98l-211 -531h215v170h91v-170h98v-90h-98v-264h-91v264h-313z" />
<glyph unicode="&#xbd;" horiz-adv-x="1902" d="M113 565v90h104v695h-104v90h196v-785h107v-90h-303zM324 -55l1032 1495h121l-1035 -1495h-118zM1298 756q38 74 113 102q41 16 96 16h35q99 0 166.5 -62.5t67.5 -156.5q0 -95 -136 -301q-134 -198 -188 -264h338v-90h-453v90l15 19q100 127 215 294q119 178 119 252 q0 59 -40.5 94t-103.5 35h-35q-94 0 -129 -69z" />
<glyph unicode="&#xc0;" horiz-adv-x="1069" d="M61 0l402 1440h143l402 -1440h-154l-117 412h-407l-115 -412h-154zM276 1763l203 -188h189l-121 188h-271zM371 553h327l-163 588z" />
<glyph unicode="&#xc1;" horiz-adv-x="1069" d="M61 0l402 1440h143l402 -1440h-154l-117 412h-407l-115 -412h-154zM371 553h327l-163 588zM414 1575h188l203 188h-270z" />
<glyph unicode="&#xc2;" horiz-adv-x="1069" d="M61 0l402 1440h143l402 -1440h-154l-117 412h-407l-115 -412h-154zM279 1649l157 209h199l158 -209l-99 -74l-159 188l-158 -188zM371 553h327l-163 588z" />
<glyph unicode="&#xc4;" horiz-adv-x="1069" d="M61 0l402 1440h143l402 -1440h-154l-117 412h-407l-115 -412h-154zM313 1575h148v147h-148v-147zM371 553h327l-163 588zM610 1575h148v147h-148v-147z" />
<glyph unicode="&#xc5;" horiz-adv-x="1069" d="M61 0l402 1440h143l402 -1440h-154l-117 412h-407l-115 -412h-154zM371 553h327l-163 588zM434 1640q0 -41 30 -71.5t71 -30.5q42 0 72 30t30 72t-29.5 71.5t-72.5 29.5q-41 0 -71 -30t-30 -71zM479 1640q0 23 17 39.5t39 16.5q23 0 39 -16.5t16 -39.5t-16 -39t-39 -16 q-22 0 -39 16t-17 39z" />
<glyph unicode="&#xc6;" horiz-adv-x="1753" d="M113 0l401 1440h1126v-148h-649v-475h455v-149h-455v-521h649v-147h-796v412h-463l-115 -412h-153zM422 553h422v739h-223l-35 -151z" />
<glyph unicode="&#xc9;" horiz-adv-x="1021" d="M113 0v1440h796v-148h-649v-475h455v-149h-455v-521h649v-147h-796zM381 1575h188l203 188h-270z" />
<glyph unicode="&#xcd;" horiz-adv-x="372" d="M59 1575h189l203 188h-271zM113 0v1440h147v-1440h-147z" />
<glyph unicode="&#xd3;" horiz-adv-x="960" d="M72 352v735q0 146 103 249.5t249 103.5h113q146 0 249 -103.5t103 -249.5v-735q0 -146 -103 -249t-249 -103h-113q-146 0 -249 103t-103 249zM219 352q0 -85 60 -145t145 -60h113q85 0 144.5 60t59.5 145v735q0 85 -59.5 145t-144.5 60h-113q-85 0 -145 -60t-60 -145 v-735zM360 1575h189l203 188h-271z" />
<glyph unicode="&#xd5;" horiz-adv-x="960" d="M72 352v735q0 146 103 249.5t249 103.5h113q146 0 249 -103.5t103 -249.5v-735q0 -146 -103 -249t-249 -103h-113q-146 0 -249 103t-103 249zM175 1592.5q0 -9.5 0.5 -17.5t1.5 -13l1 -6h125q0 19 11 46.5t24 31.5q28 7 84 -30q7 -4 20.5 -13.5t20.5 -13.5 q52 -27 112 -27q55 0 107 27q39 25 66.5 80.5t27.5 136.5h-125q0 -27 -10.5 -56t-30.5 -40q-22 -9 -43.5 -7t-36.5 9l-32 20q-19 12 -31.5 19.5t-34.5 17.5t-41 14t-44 3t-50 -9q-35 -9 -66.5 -39.5t-48.5 -87.5q-3 -11 -5 -23.5t-2 -22zM219 352q0 -85 60 -145t145 -60h113 q85 0 144.5 60t59.5 145v735q0 85 -59.5 145t-144.5 60h-113q-85 0 -145 -60t-60 -145v-735z" />
<glyph unicode="&#xd6;" horiz-adv-x="960" d="M72 352v735q0 146 103 249.5t249 103.5h113q146 0 249 -103.5t103 -249.5v-735q0 -146 -103 -249t-249 -103h-113q-146 0 -249 103t-103 249zM219 352q0 -85 60 -145t145 -60h113q85 0 144.5 60t59.5 145v735q0 85 -59.5 145t-144.5 60h-113q-85 0 -145 -60t-60 -145 v-735zM260 1575h148v147h-148v-147zM557 1575h148v147h-148v-147z" />
<glyph unicode="&#xd8;" horiz-adv-x="1042" d="M113 352v735q0 146 103 249.5t249 103.5h113q52 0 120 -21l66 201l98 -33l-74 -217q66 -51 104 -124.5t38 -158.5v-735q0 -146 -103 -249t-249 -103h-113q-56 0 -121 20l-72 -221l-98 33l80 240q-66 48 -103.5 121.5t-37.5 158.5zM260 352q0 -73 45 -127l346 1053 q-40 14 -73 14h-113q-85 0 -145 -60t-60 -145v-735zM391 162q43 -15 74 -15h113q85 0 144.5 60t59.5 145v735q0 73 -45 127z" />
<glyph unicode="&#xd9;" horiz-adv-x="1001" d="M92 352v897l4 191h140l4 -191v-897q0 -85 59.5 -145t144.5 -60h113q85 0 145 60t62 145v1088h141l4 -191v-897q0 -146 -103 -249t-249 -103h-113q-146 0 -249 103t-103 249zM250 1763l203 -188h188l-121 188h-270z" />
<glyph unicode="&#xda;" horiz-adv-x="1001" d="M92 352v897l4 191h140l4 -191v-897q0 -85 59.5 -145t144.5 -60h113q85 0 145 60t62 145v1088h141l4 -191v-897q0 -146 -103 -249t-249 -103h-113q-146 0 -249 103t-103 249zM387 1575h188l203 188h-270z" />
<glyph unicode="&#xdb;" horiz-adv-x="1001" d="M92 352v897l4 191h140l4 -191v-897q0 -85 59.5 -145t144.5 -60h113q85 0 145 60t62 145v1088h141l4 -191v-897q0 -146 -103 -249t-249 -103h-113q-146 0 -249 103t-103 249zM252 1649l158 209h198l158 -209l-98 -74l-160 188l-158 -188z" />
<glyph unicode="&#xdc;" horiz-adv-x="1001" d="M92 352v897l4 191h140l4 -191v-897q0 -85 59.5 -145t144.5 -60h113q85 0 145 60t62 145v1088h141l4 -191v-897q0 -146 -103 -249t-249 -103h-113q-146 0 -249 103t-103 249zM287 1575h147v147h-147v-147zM584 1575h147v147h-147v-147z" />
<glyph unicode="&#xdd;" horiz-adv-x="950" d="M61 1440h150l264 -645l264 645h150l-338 -826h-2v-614h-148v614h-2zM350 1575h189l202 188h-270z" />
<glyph unicode="&#xdf;" horiz-adv-x="1052" d="M113 2v1217q0 93 49 151q63 76 172 76h102q161 0 276 -114.5t115 -274.5q0 -166 -120 -283q104 -48 168.5 -147t64.5 -219q0 -168 -120 -288t-288 -120h-161v147h161q107 0 184 77t77 184t-77 183.5t-184 76.5h-167v147h71q101 0 172.5 71t71.5 171t-71.5 170.5 t-172.5 70.5h-102q-43 0 -58 -22q-16 -19 -16 -57v-1217h-147z" />
<glyph unicode="&#xe1;" horiz-adv-x="870" d="M90 276q0 114 81 195.5t196 81.5h264v137q0 53 -37.5 91t-91.5 38h-135q-39 0 -74 -23t-49 -57l-127 64q33 71 101 117.5t149 46.5h135q115 0 195.5 -81.5t80.5 -195.5v-690h-110l-35 41q-59 -41 -131 -41h-135q-114 0 -195.5 80.5t-81.5 195.5zM238 276 q0 -54 37.5 -91.5t91.5 -37.5h135q54 0 91.5 37.5t37.5 91.5v130h-264q-54 0 -91.5 -38t-37.5 -92zM332 1102h188l203 188h-270z" />
<glyph unicode="&#xe3;" horiz-adv-x="870" d="M90 276q0 114 81 195.5t196 81.5h264v137q0 53 -37.5 91t-91.5 38h-135q-39 0 -74 -23t-49 -57l-127 64q33 71 101 117.5t149 46.5h135q115 0 195.5 -81.5t80.5 -195.5v-690h-110l-35 41q-59 -41 -131 -41h-135q-114 0 -195.5 80.5t-81.5 195.5zM147 1119.5 q0 -9.5 0.5 -17.5t1.5 -14l1 -5h124q0 19 11 46.5t24 31.5q16 4 33.5 -2.5t50.5 -28.5q7 -4 20.5 -13t20.5 -13q52 -27 113 -27q53 0 106 27q39 25 67 80.5t28 136.5h-125q0 -27 -10.5 -56t-30.5 -40q-22 -9 -43.5 -7t-36.5 9l-33 20q-19 12 -31.5 19.5t-34.5 17.5t-41 14 t-44 3t-50 -9q-82 -21 -114 -127q-3 -11 -5 -23.5t-2 -22zM238 276q0 -54 37.5 -91.5t91.5 -37.5h135q54 0 91.5 37.5t37.5 91.5v130h-264q-54 0 -91.5 -38t-37.5 -92z" />
<glyph unicode="&#xe4;" horiz-adv-x="870" d="M90 276q0 114 81 195.5t196 81.5h264v137q0 53 -37.5 91t-91.5 38h-135q-39 0 -74 -23t-49 -57l-127 64q33 71 101 117.5t149 46.5h135q115 0 195.5 -81.5t80.5 -195.5v-690h-110l-35 41q-59 -41 -131 -41h-135q-114 0 -195.5 80.5t-81.5 195.5zM231 1102h148v147h-148 v-147zM238 276q0 -54 37.5 -91.5t91.5 -37.5h135q54 0 91.5 37.5t37.5 91.5v130h-264q-54 0 -91.5 -38t-37.5 -92zM528 1102h148v147h-148v-147z" />
<glyph unicode="&#xe5;" horiz-adv-x="870" d="M90 276q0 114 81 195.5t196 81.5h264v137q0 53 -37.5 91t-91.5 38h-135q-39 0 -74 -23t-49 -57l-127 64q33 71 101 117.5t149 46.5h135q115 0 195.5 -81.5t80.5 -195.5v-690h-110l-35 41q-59 -41 -131 -41h-135q-114 0 -195.5 80.5t-81.5 195.5zM238 276 q0 -54 37.5 -91.5t91.5 -37.5h135q54 0 91.5 37.5t37.5 91.5v130h-264q-54 0 -91.5 -38t-37.5 -92zM352 1167q0 -41 30 -71.5t71 -30.5q42 0 72 30t30 72q0 41 -29.5 71t-72.5 30q-41 0 -71 -30t-30 -71zM397 1167q0 23 17 39.5t39 16.5q23 0 39 -16.5t16 -39.5t-16 -39 t-39 -16q-22 0 -39 16t-17 39z" />
<glyph unicode="&#xe6;" horiz-adv-x="1458" d="M113 276q0 115 81 197t195 82h266v135q0 54 -38.5 91.5t-92.5 37.5h-135q-40 0 -74 -22.5t-47 -57.5l-127 66q32 71 99.5 116.5t148.5 45.5h135q130 0 213 -99q86 99 195 99h135q115 0 196 -81t83 -196q0 -115 -81.5 -195.5t-197.5 -80.5h-264v-138q0 -53 37.5 -91 t91.5 -38h135q41 0 75 23t48 57l127 -63q-33 -71 -101 -117.5t-149 -46.5h-135q-126 0 -211 98q-88 -98 -197 -98h-135q-114 0 -195 81t-81 195zM260 276q0 -52 38 -90.5t91 -38.5h135q54 0 92.5 38t38.5 91v132h-266q-53 0 -91 -39t-38 -93zM803 561h264q54 0 91.5 37.5 t37.5 91.5t-37.5 91.5t-91.5 37.5h-135q-54 0 -91.5 -37.5t-37.5 -91.5v-129z" />
<glyph unicode="&#xe9;" horiz-adv-x="847" d="M86 276v377q0 118 82.5 216t193.5 98h136q115 0 196.5 -81.5t81.5 -195.5q0 -115 -81 -195.5t-197 -80.5h-265v-138q0 -52 38.5 -90.5t90.5 -38.5h136q41 0 75 23t48 57l127 -63q-34 -72 -101 -118t-149 -46h-136q-114 0 -195 81t-81 195zM233 561h265q54 0 92.5 37.5 t38.5 91.5t-38.5 91.5t-92.5 37.5h-136q-53 0 -91 -37.5t-38 -91.5v-129zM307 1102h189l202 188h-270z" />
<glyph unicode="&#xeb;" horiz-adv-x="847" d="M86 276v377q0 118 82.5 216t193.5 98h136q115 0 196.5 -81.5t81.5 -195.5q0 -115 -81 -195.5t-197 -80.5h-265v-138q0 -52 38.5 -90.5t90.5 -38.5h136q41 0 75 23t48 57l127 -63q-34 -72 -101 -118t-149 -46h-136q-114 0 -195 81t-81 195zM207 1102h147v147h-147v-147z M233 561h265q54 0 92.5 37.5t38.5 91.5t-38.5 91.5t-92.5 37.5h-136q-53 0 -91 -37.5t-38 -91.5v-129zM504 1102h147v147h-147v-147z" />
<glyph unicode="&#xec;" horiz-adv-x="372" d="M-78 1290l203 -188h188l-120 188h-271zM113 0h147v967h-147v-967z" />
<glyph unicode="&#xed;" horiz-adv-x="372" d="M59 1102h189l203 188h-271zM113 0h147v967h-147v-967z" />
<glyph unicode="&#xee;" horiz-adv-x="372" d="M-76 1176l158 208h199l157 -208l-98 -74l-160 188l-157 -188zM113 0h147v967h-147v-967z" />
<glyph unicode="&#xef;" horiz-adv-x="372" d="M-43 1102h149v147h-149v-147zM113 0h147v967h-147v-967zM256 1102h147v147h-147v-147z" />
<glyph unicode="&#xf1;" horiz-adv-x="874" d="M102 0v967h111l37 -45v2q88 43 129 43h135q116 0 197.5 -81t81.5 -196v-690h-148v690q0 54 -38.5 91.5t-92.5 37.5h-135q-52 0 -90.5 -39t-38.5 -90v-690h-148zM147 1119.5q0 -9.5 0.5 -17.5t1.5 -14l1 -5h124q0 19 11 46.5t24 31.5q16 4 33.5 -2.5t50.5 -28.5 q7 -4 20.5 -13t20.5 -13q52 -27 113 -27q53 0 106 27q39 25 67 80.5t28 136.5h-125q0 -27 -10.5 -56t-30.5 -40q-22 -9 -43.5 -7t-36.5 9l-33 20q-19 12 -31.5 19.5t-34.5 17.5t-41 14t-44 3t-50 -9q-82 -21 -114 -127q-3 -11 -5 -23.5t-2 -22z" />
<glyph unicode="&#xf2;" d="M82 291v385q0 60 16.5 108.5t43 78t58.5 51.5t64.5 32t59 16t42.5 6l17 1h102q57 0 104 -16t76 -42t51.5 -57.5t33 -62.5t17 -57t7.5 -42l2 -16v-385q0 -6 -1 -16.5t-8 -41t-17.5 -58t-33 -61.5t-51.5 -58.5t-76 -41t-104 -16.5h-102q-6 0 -17 0.5t-42 6.5t-59.5 16 t-63.5 32t-60 51.5t-42 78t-17 108.5zM180 1290l203 -188h188l-120 188h-271zM238 291q1 -6 2.5 -16t11 -35.5t23.5 -45t42.5 -35.5t65.5 -16h102q6 0 15 1.5t32.5 10.5t41.5 23.5t32.5 44t14.5 68.5v385q0 39 -14 68.5t-34 43.5t-40 23t-34 11l-14 1h-102q-27 0 -49.5 -8 t-37 -21t-25.5 -28.5t-17 -31.5t-10 -29t-5 -21l-1 -8v-385z" />
<glyph unicode="&#xf3;" d="M82 291v385q0 60 16.5 108.5t43 78t58.5 51.5t64.5 32t59 16t42.5 6l17 1h102q57 0 104 -16t76 -42t51.5 -57.5t33 -62.5t17 -57t7.5 -42l2 -16v-385q0 -6 -1 -16.5t-8 -41t-17.5 -58t-33 -61.5t-51.5 -58.5t-76 -41t-104 -16.5h-102q-6 0 -17 0.5t-42 6.5t-59.5 16 t-63.5 32t-60 51.5t-42 78t-17 108.5zM238 291q1 -6 2.5 -16t11 -35.5t23.5 -45t42.5 -35.5t65.5 -16h102q6 0 15 1.5t32.5 10.5t41.5 23.5t32.5 44t14.5 68.5v385q0 39 -14 68.5t-34 43.5t-40 23t-34 11l-14 1h-102q-27 0 -49.5 -8t-37 -21t-25.5 -28.5t-17 -31.5t-10 -29 t-5 -21l-1 -8v-385zM317 1102h189l203 188h-271z" />
<glyph unicode="&#xf4;" d="M82 291v385q0 60 16.5 108.5t43 78t58.5 51.5t64.5 32t59 16t42.5 6l17 1h102q57 0 104 -16t76 -42t51.5 -57.5t33 -62.5t17 -57t7.5 -42l2 -16v-385q0 -6 -1 -16.5t-8 -41t-17.5 -58t-33 -61.5t-51.5 -58.5t-76 -41t-104 -16.5h-102q-6 0 -17 0.5t-42 6.5t-59.5 16 t-63.5 32t-60 51.5t-42 78t-17 108.5zM182 1176l158 208h199l157 -208l-98 -74l-160 188l-157 -188zM238 291q1 -6 2.5 -16t11 -35.5t23.5 -45t42.5 -35.5t65.5 -16h102q6 0 15 1.5t32.5 10.5t41.5 23.5t32.5 44t14.5 68.5v385q0 39 -14 68.5t-34 43.5t-40 23t-34 11l-14 1 h-102q-27 0 -49.5 -8t-37 -21t-25.5 -28.5t-17 -31.5t-10 -29t-5 -21l-1 -8v-385z" />
<glyph unicode="&#xf5;" d="M82 291v385q0 60 16.5 108.5t43 78t58.5 51.5t64.5 32t59 16t42.5 6l17 1h102q57 0 104 -16t76 -42t51.5 -57.5t33 -62.5t17 -57t7.5 -42l2 -16v-385q0 -6 -1 -16.5t-8 -41t-17.5 -58t-33 -61.5t-51.5 -58.5t-76 -41t-104 -16.5h-102q-6 0 -17 0.5t-42 6.5t-59.5 16 t-63.5 32t-60 51.5t-42 78t-17 108.5zM132 1119.5q0 -9.5 0.5 -17.5t1.5 -14l1 -5h125q0 19 11 46.5t24 31.5q16 4 33.5 -2.5t50.5 -28.5q7 -4 20.5 -13t20.5 -13q52 -27 112 -27q54 0 107 27q39 25 66.5 80.5t27.5 136.5h-125q0 -27 -10.5 -56t-30.5 -40q-22 -9 -43.5 -7 t-36.5 9l-32 20q-19 12 -31.5 19.5t-34.5 17.5t-41 14t-44 3t-50 -9q-35 -9 -66.5 -39.5t-48.5 -87.5q-3 -11 -5 -23.5t-2 -22zM238 291q1 -6 2.5 -16t11 -35.5t23.5 -45t42.5 -35.5t65.5 -16h102q6 0 15 1.5t32.5 10.5t41.5 23.5t32.5 44t14.5 68.5v385q0 39 -14 68.5 t-34 43.5t-40 23t-34 11l-14 1h-102q-27 0 -49.5 -8t-37 -21t-25.5 -28.5t-17 -31.5t-10 -29t-5 -21l-1 -8v-385z" />
<glyph unicode="&#xf6;" d="M82 291v385q0 60 16.5 108.5t43 78t58.5 51.5t64.5 32t59 16t42.5 6l17 1h102q57 0 104 -16t76 -42t51.5 -57.5t33 -62.5t17 -57t7.5 -42l2 -16v-385q0 -6 -1 -16.5t-8 -41t-17.5 -58t-33 -61.5t-51.5 -58.5t-76 -41t-104 -16.5h-102q-6 0 -17 0.5t-42 6.5t-59.5 16 t-63.5 32t-60 51.5t-42 78t-17 108.5zM217 1102h148v147h-148v-147zM238 291q1 -6 2.5 -16t11 -35.5t23.5 -45t42.5 -35.5t65.5 -16h102q6 0 15 1.5t32.5 10.5t41.5 23.5t32.5 44t14.5 68.5v385q0 39 -14 68.5t-34 43.5t-40 23t-34 11l-14 1h-102q-27 0 -49.5 -8t-37 -21 t-25.5 -28.5t-17 -31.5t-10 -29t-5 -21l-1 -8v-385zM514 1102h148v147h-148v-147z" />
<glyph unicode="&#xf7;" horiz-adv-x="1228" d="M154 514h942v148h-942v-148zM551 264h147v148h-147v-148zM557 778h137v148h-137v-148z" />
<glyph unicode="&#xf8;" d="M82 291v385q0 60 16.5 108.5t43 78t58.5 51.5t64.5 32t59 16t42.5 6l17 1h127l59 178l97 -33l-58 -170q45 -20 78.5 -54.5t50 -70.5t26 -68.5t11.5 -53.5l2 -21v-385q0 -6 -1 -16.5t-8 -41t-17.5 -58t-33 -61.5t-51.5 -58.5t-76 -41t-104 -16.5h-102q-37 0 -86 12 l-53 -157l-97 32l56 166q-121 79 -121 240zM238 291q4 -35 22 -70l201 602h-78q-27 0 -49.5 -8t-37 -21t-25.5 -28.5t-17 -31.5t-10 -29t-5 -21l-1 -8v-385zM342 150q21 -7 41 -7h102q6 0 15 1.5t32.5 10.5t41.5 23.5t32.5 44t14.5 68.5v385q0 87 -62 121z" />
<glyph unicode="&#xf9;" horiz-adv-x="897" d="M102 291v547l4 129h148l4 -129v-547q1 -6 2.5 -16t11 -35t23.5 -44t42 -35t64 -16h103q5 0 14.5 1.5t32.5 10t41 22.5t32.5 43.5t14.5 68.5v547l4 129h148l4 -129v-547q0 -6 -1.5 -16.5t-8.5 -40.5t-17.5 -57.5t-33 -61.5t-52 -58t-76 -40.5t-102.5 -16.5h-103 q-6 0 -17 0.5t-42 6.5t-59 16t-62.5 31.5t-59.5 51t-42 78t-17 107.5zM188 1290l203 -188h189l-121 188h-271z" />
<glyph unicode="&#xfa;" horiz-adv-x="897" d="M102 291v547l4 129h148l4 -129v-547q1 -6 2.5 -16t11 -35t23.5 -44t42 -35t64 -16h103q5 0 14.5 1.5t32.5 10t41 22.5t32.5 43.5t14.5 68.5v547l4 129h148l4 -129v-547q0 -6 -1.5 -16.5t-8.5 -40.5t-17.5 -57.5t-33 -61.5t-52 -58t-76 -40.5t-102.5 -16.5h-103 q-6 0 -17 0.5t-42 6.5t-59 16t-62.5 31.5t-59.5 51t-42 78t-17 107.5zM326 1102h188l203 188h-271z" />
<glyph unicode="&#xfb;" horiz-adv-x="897" d="M102 291v547l4 129h148l4 -129v-547q1 -6 2.5 -16t11 -35t23.5 -44t42 -35t64 -16h103q5 0 14.5 1.5t32.5 10t41 22.5t32.5 43.5t14.5 68.5v547l4 129h148l4 -129v-547q0 -6 -1.5 -16.5t-8.5 -40.5t-17.5 -57.5t-33 -61.5t-52 -58t-76 -40.5t-102.5 -16.5h-103 q-6 0 -17 0.5t-42 6.5t-59 16t-62.5 31.5t-59.5 51t-42 78t-17 107.5zM190 1176l158 208h199l158 -208l-99 -74l-160 188l-157 -188z" />
<glyph unicode="&#xfc;" horiz-adv-x="897" d="M102 291v547l4 129h148l4 -129v-547q1 -6 2.5 -16t11 -35t23.5 -44t42 -35t64 -16h103q5 0 14.5 1.5t32.5 10t41 22.5t32.5 43.5t14.5 68.5v547l4 129h148l4 -129v-547q0 -6 -1.5 -16.5t-8.5 -40.5t-17.5 -57.5t-33 -61.5t-52 -58t-76 -40.5t-102.5 -16.5h-103 q-6 0 -17 0.5t-42 6.5t-59 16t-62.5 31.5t-59.5 51t-42 78t-17 107.5zM225 1102h148v147h-148v-147zM522 1102h148v147h-148v-147z" />
<glyph unicode="&#xfd;" horiz-adv-x="718" d="M41 -268l84 4q36 0 53.5 8.5t32 37t31.5 93.5q30 128 32 137l-231 955h147l160 -658l160 658h147l-229 -944q-22 -105 -43 -185q-12 -45 -22.5 -76t-31 -67t-46.5 -57.5t-67 -36.5t-93 -15l-84 4v142zM236 1102h188l203 188h-271z" />
<glyph unicode="&#xff;" horiz-adv-x="718" d="M41 -268l84 4q36 0 53.5 8.5t32 37t31.5 93.5q30 128 32 137l-231 955h147l160 -658l160 658h147l-229 -944q-22 -105 -43 -185q-12 -45 -22.5 -76t-31 -67t-46.5 -57.5t-67 -36.5t-93 -15l-84 4v142zM135 1102h148v147h-148v-147zM432 1102h148v147h-148v-147z" />
<glyph unicode="&#x178;" horiz-adv-x="950" d="M61 1440h150l264 -645l264 645h150l-338 -826h-2v-614h-148v614h-2zM250 1575h147v147h-147v-147zM547 1575h147v147h-147v-147z" />
<glyph unicode="&#x2c6;" horiz-adv-x="1228" d="M348 1176l158 208h199l157 -208l-98 -74l-160 188l-158 -188z" />
<glyph unicode="&#x2dc;" horiz-adv-x="878" d="M145 1119.5q0 -9.5 0.5 -17.5t0.5 -14l1 -5h125q0 19 11 46.5t24 31.5q16 4 33.5 -2.5t50.5 -28.5q7 -4 20.5 -13t20.5 -13q52 -27 113 -27q53 0 106 27q39 25 66.5 80.5t27.5 136.5h-124q0 -27 -10.5 -56t-30.5 -40q-22 -9 -43.5 -7t-36.5 9l-33 20q-19 12 -31.5 19.5 t-34.5 17.5t-41 14t-44 3t-50 -9q-82 -21 -114 -127q-3 -11 -5 -23.5t-2 -22z" />
<glyph unicode="&#x2000;" horiz-adv-x="929" />
<glyph unicode="&#x2001;" horiz-adv-x="1858" />
<glyph unicode="&#x2002;" horiz-adv-x="929" />
<glyph unicode="&#x2003;" horiz-adv-x="1858" />
<glyph unicode="&#x2004;" horiz-adv-x="619" />
<glyph unicode="&#x2005;" horiz-adv-x="464" />
<glyph unicode="&#x2006;" horiz-adv-x="309" />
<glyph unicode="&#x2007;" horiz-adv-x="309" />
<glyph unicode="&#x2008;" horiz-adv-x="232" />
<glyph unicode="&#x2009;" horiz-adv-x="371" />
<glyph unicode="&#x200a;" horiz-adv-x="103" />
<glyph unicode="&#x2010;" horiz-adv-x="915" d="M113 514h690v148h-690v-148z" />
<glyph unicode="&#x2011;" horiz-adv-x="915" d="M113 514h690v148h-690v-148z" />
<glyph unicode="&#x2012;" horiz-adv-x="915" d="M113 514h690v148h-690v-148z" />
<glyph unicode="&#x2013;" horiz-adv-x="1167" d="M113 514h942v148h-942v-148z" />
<glyph unicode="&#x2014;" horiz-adv-x="1372" d="M113 514h1147v148h-1147v-148z" />
<glyph unicode="&#x2018;" horiz-adv-x="411" d="M113 1245v148q4 20 8 30q15 62 43.5 96t91.5 33h43v-75h-43q-27 0 -38 -12t-23 -60q0 -2 -1 -6t-1 -6h67v-148h-147z" />
<glyph unicode="&#x2019;" horiz-adv-x="411" d="M113 1247v76h43q27 0 38 12t23 60q0 2 1 6t1 6h-67v147h147v-147q-4 -22 -8 -31q-15 -62 -43.5 -96t-91.5 -33h-43z" />
<glyph unicode="&#x201c;" horiz-adv-x="671" d="M113 1245v148q4 20 8 30q15 62 43.5 96t91.5 33h43v-75h-43q-27 0 -38 -12t-23 -60q0 -2 -1 -6t-1 -6h67v-148h-147zM373 1245v148q4 20 8 30q15 62 43.5 96t91.5 33h43v-75h-43q-27 0 -38 -12t-23 -60q0 -2 -1 -6t-1 -6h67v-148h-147z" />
<glyph unicode="&#x201d;" horiz-adv-x="671" d="M113 1247v76h43q27 0 38 12t23 60q0 2 1 6t1 6h-67v147h147v-147q-4 -22 -8 -31q-15 -62 -43.5 -96t-91.5 -33h-43zM373 1247v76h43q27 0 38 12t23 60q0 2 1 6t1 6h-67v147h147v-147q-4 -22 -8 -31q-15 -62 -43.5 -96t-91.5 -33h-43z" />
<glyph unicode="&#x201e;" horiz-adv-x="350" d="M82 -84h43q27 0 38 12t23 60q0 2 1 6t1 6h-67v147h147v-147q-4 -22 -8 -31q-15 -62 -43.5 -96t-91.5 -33h-43v76z" />
<glyph unicode="&#x2022;" horiz-adv-x="602" d="M133 707q0 -69 48.5 -119.5t117.5 -50.5q71 0 120.5 50t49.5 120q0 68 -49.5 116.5t-120.5 48.5q-69 0 -117.5 -48.5t-48.5 -116.5z" />
<glyph unicode="&#x2026;" horiz-adv-x="352" d="M102 0v147h148v-147h-148z" />
<glyph unicode="&#x202f;" horiz-adv-x="371" />
<glyph unicode="&#x2039;" horiz-adv-x="739" d="M154 760l356 354l76 -76l-281 -278l281 -279l-76 -78z" />
<glyph unicode="&#x203a;" horiz-adv-x="657" d="M113 481l280 279l-280 278l75 76l357 -354l-357 -357z" />
<glyph unicode="&#x205f;" horiz-adv-x="464" />
<glyph unicode="&#x20ac;" horiz-adv-x="1191" d="M113 532v109h141v158h-141v108h141v180q0 146 103.5 249.5t248.5 103.5h160q101 0 185 -53.5t128 -141.5l-133 -65q-25 50 -73.5 81t-106.5 31h-160q-85 0 -144 -60t-59 -145v-180h439v-108h-439v-158h334v-109h-334v-180q0 -85 59 -145t144 -60h160q57 0 105 30t73 79 l133 -66q-43 -86 -127 -138t-184 -52h-160q-145 0 -248.5 103t-103.5 249v180h-141z" />
<glyph unicode="&#x25fc;" horiz-adv-x="962" d="M0 0v963h963v-963h-963z" />
</font>
</defs>
</svg>
